# xmcd
#
# Track frame offsets: 
#        150
#        15343
#        34976
#        50514
#        66852
#        82391
#        94476
#        109970
#        127235
#        145314
#        162890
#        177241
#        192643
#        206578
#        224689
#        243498
#        261006
#        273979
#        289110
#        300699
#
# Disc length: 4199 seconds
#
# Revision: 0
# Processed by: cddbd v1.5.2PL0 Copyright (c) Steve Scherf et al.
# Submitted via: ExactAudioCopy v1.1
#
DISCID=42106514
DTITLE=Various Artist - Radio 2 - De Lage Landen - CD 2
DYEAR=2008
DGENRE=Chanson
TTITLE0=Will Tura - Vergeet Barbara
TTITLE1=Rob De Nijs - Banger Hart
TTITLE2=Niels William - Zie Ze Doen (Remix)
TTITLE3=V.O.F. De Kunst - Eén Kopje Koffie
TTITLE4=René Froger and Het Goede Doel - Alles Kan Een Mens Gelukkig Mak
TTITLE4=en
TTITLE5=Peter En Zijn Rockets - Kom Van Dat Dak Af (Heruitgave)
TTITLE6=Benny Neyman - Vrijgezel
TTITLE7=Johan Verminnen - Mooie Dagen
TTITLE8=André Hazes - Zij Gelooft In Mij
TTITLE9=Veldhuis and Kemper - Ik Wou Dat Ik Jou Was
TTITLE10=Stef Bos - Papa
TTITLE11=Guus Meeuwis and Vagant - Het Is Een Nacht... (Levensecht) (Liv
TTITLE11=e)
TTITLE12=Yasmine - Ik Was Zo Graag Bij Jou Gebleven
TTITLE13=Frank Boeijen Groep - Kronenburg Park (Ga Die Wereld Uit)
TTITLE14=Clouseau - Afscheid Van Een Vriend
TTITLE15=Herman Van Veen - Hilversum III
TTITLE16=Joost Nuissl - Ik Ben Blij Dat Ik Je Niet Vergeten Ben
TTITLE17=Bots - Zeven Dagen Lang
TTITLE18=Jimmy Frey - Zo Mooi, Zo Blond En Zo Alleen
TTITLE19=Marva - Rode Rozen In De Sneeuw
EXTD=
EXTT0=
EXTT1=
EXTT2=
EXTT3=
EXTT4=
EXTT5=
EXTT6=
EXTT7=
EXTT8=
EXTT9=
EXTT10=
EXTT11=
EXTT12=
EXTT13=
EXTT14=
EXTT15=
EXTT16=
EXTT17=
EXTT18=
EXTT19=
PLAYORDER=
